<svg xmlns="http://www.w3.org/2000/svg" width="40.816" height="40.564"><g fill="#f60"><path d="M39.664 1.181A3.958 3.958 0 0035.724.16L2.873 9.652A3.907 3.907 0 00.05 12.737 4.563 4.563 0 002.1 17l10.272 6.272a2.671 2.671 0 003.285-.39l11.757-11.758a1.5 1.5 0 012.164 0 1.54 1.54 0 010 2.164L17.8 25.05a2.675 2.675 0 00-.394 3.285l6.276 10.31a4.087 4.087 0 003.9 1.9 3.969 3.969 0 003.328-2.817l9.739-32.6a3.967 3.967 0 00-.98-3.94"/><path d="M10.26 39.952a1.532 1.532 0 010-2.165l2.787-2.789a1.532 1.532 0 012.166 2.166l-2.789 2.787a1.53 1.53 0 01-2.165 0zm-1.6-7.734a1.532 1.532 0 010-2.165l2.787-2.789a1.532 1.532 0 012.166 2.166l-2.789 2.788a1.53 1.53 0 01-2.165 0zM.981 29.783a1.532 1.532 0 010-2.165l2.787-2.788a1.532 1.532 0 112.165 2.166l-2.788 2.787a1.53 1.53 0 01-2.165 0z" opacity=".4"/></g></svg>