<svg xmlns="http://www.w3.org/2000/svg" width="36.533" height="36.479"><path d="M18.3 0A18.265 18.265 0 000 18.266a19.289 19.289 0 002.466 9.115 1.91 1.91 0 01.128 1.644L1.37 33.117a1.14 1.14 0 001.5 1.425l3.69-1.1a3.113 3.113 0 012.724.658A18.242 18.242 0 1018.3 0" fill="#00c663"/><path d="M24.314 18.284a2.338 2.338 0 112.337 2.339 2.33 2.33 0 01-2.337-2.339zm-8.421-.018a2.338 2.338 0 112.338 2.357 2.36 2.36 0 01-2.338-2.357zm-8.422.018a2.338 2.338 0 014.675 0 2.356 2.356 0 01-2.337 2.339 2.355 2.355 0 01-2.338-2.339z" fill="#fff"/></svg>