<svg xmlns="http://www.w3.org/2000/svg" width="40.834" height="38.792"><path d="M19.96 38.46A74.027 74.027 0 017.04 28.338a25.864 25.864 0 01-6.188-9.809C-1.47 11.3 1.233 3.041 8.782.589a12.826 12.826 0 0111.65 2.065A12.844 12.844 0 0132.081.589c7.549 2.452 10.271 10.712 7.948 17.94a25.867 25.867 0 01-6.151 9.809 74.7 74.7 0 01-12.92 10.122l-.508.332z" fill="#f20045" opacity=".8"/><path d="M20.439 38.792l-.48-.332A74.152 74.152 0 017.021 28.338 25.861 25.861 0 01.8 18.529c-2.307-7.228.4-15.488 7.945-17.94a12.855 12.855 0 0111.694 2.087z" fill="#f20045"/><path d="M33.137 14.29a1.467 1.467 0 01-1.054-.565 1.67 1.67 0 01-.341-1.207 3.362 3.362 0 00-2.03-3.247 1.608 1.608 0 01-1.084-1.936 1.48 1.48 0 011.764-1.171.783.783 0 01.283.106 6.526 6.526 0 014.026 6.441 1.648 1.648 0 01-.468 1.143 1.445 1.445 0 01-1.096.436z" fill="#fff"/></svg>