<svg xmlns="http://www.w3.org/2000/svg" width="40.834" height="36.75"><g fill="#515151"><path d="M29.639 36.75H11.2a11.5 11.5 0 01-8.237-2.885A10.886 10.886 0 010 25.835V10.9a10.861 10.861 0 012.959-8.023A11.517 11.517 0 0111.2 0h18.432a11.514 11.514 0 018.236 2.877 10.863 10.863 0 012.958 8.023v.075H32.18a7.228 7.228 0 00-7.289 7.109 6.985 6.985 0 002.131 5.036 7.34 7.34 0 005.159 2.091h8.653v.625a10.887 10.887 0 01-2.958 8.03 11.5 11.5 0 01-8.237 2.884zM9.676 7.91a1.549 1.549 0 00-1.554 1.52 1.493 1.493 0 00.453 1.078 1.571 1.571 0 001.1.451h11.539a1.57 1.57 0 001.1-.451 1.5 1.5 0 00.453-1.08A1.549 1.549 0 0021.2 7.91z"/><path d="M28.659 18.981a4.12 4.12 0 004.074 3.273h6.635a1.481 1.481 0 001.465-1.5v-5.166a1.486 1.486 0 00-1.465-1.5h-6.791a4.052 4.052 0 00-3.994 4.1 4.147 4.147 0 00.076.789" opacity=".4"/><circle cx="2.042" cy="2.042" r="2.042" transform="translate(30.625 16.129)"/></g></svg>